<?xml version="1.0" encoding="utf-8"?>
<!-- Generator: Adobe Illustrator 16.0.0, SVG Export Plug-In . SVG Version: 6.00 Build 0)  -->
<!DOCTYPE svg PUBLIC "-//W3C//DTD SVG 1.1//EN" "http://www.w3.org/Graphics/SVG/1.1/DTD/svg11.dtd">
<svg version="1.1" id="Layer_1" xmlns="http://www.w3.org/2000/svg" xmlns:xlink="http://www.w3.org/1999/xlink" x="0px" y="0px"
	 width="355.615px" height="100.5px" viewBox="0 0 355.615 100.5" enable-background="new 0 0 355.615 100.5" xml:space="preserve">
<g id="Layer_1_1_">
	<g>
		<path fill="#FFFFFF" d="M356.117,22.321h-12.604v6.533c-2.943-3.361-7.564-6.196-14.713-6.196
			c-14.17,0-23.831,9.455-23.831,24.685c0,15.97,9.557,28.043,25.839,28.043c7.772,0,14.121-2.155,18.522-6.557l6.875,6.88
			L356.117,22.321z M330.905,64.147c-7.145,0-11.658-5.152-11.658-15.125c0-9.984,4.514-15.124,11.658-15.124
			s11.661,5.14,11.661,15.124C342.566,58.995,338.05,64.147,330.905,64.147"/>
		<path fill="#FFFFFF" d="M106.92,22.654c-15.12,0-26.356,10.925-26.356,26.364c0,15.44,11.24,26.359,26.356,26.359
			c15.13,0,26.374-10.919,26.374-26.359C133.294,33.579,122.05,22.654,106.92,22.654 M106.92,64.147
			c-7.347,0-12.071-5.152-12.071-15.129c0-9.984,4.725-15.124,12.071-15.124c7.356,0,12.087,5.14,12.087,15.124
			C119.013,58.995,114.28,64.147,106.92,64.147"/>
		<path fill="#FFFFFF" d="M249.832,22.268l-6.887,6.887c-4.398-4.361-10.742-6.506-18.479-6.506
			c-16.275,0-25.844,12.081-25.844,28.048c0,15.229,9.669,24.689,23.851,24.689c7.141,0,11.754-2.84,14.705-6.198v4.936h12.597
			L249.832,22.268z M224.565,63.759c-7.141,0-11.661-5.148-11.661-15.127c0-9.983,4.521-15.124,11.661-15.124
			c7.145,0,11.666,5.141,11.666,15.124C236.231,58.61,231.71,63.759,224.565,63.759"/>
		<rect x="283.608" y="22.283" fill="#FFFFFF" width="14.293" height="51.817"/>
		<polygon fill="#FFFFFF" points="259.539,15.215 259.539,74.112 272.089,74.112 273.836,74.112 273.836,0.945 		"/>
		<path fill="#FFFFFF" d="M167.754,22.621c-5.026,0-9.872,1.474-13.02,4.621V0.614l-14.286,13.034v35.446
			c0,16.596,10.609,26.261,26.369,26.261c15.226,0,24.783-12.073,24.783-28.046C191.608,32.076,181.943,22.621,167.754,22.621
			 M165.663,64.116c-7.143,0-11.658-5.151-11.658-15.13c0-9.982,4.516-15.125,11.658-15.125s11.661,5.146,11.661,15.125
			S172.802,64.116,165.663,64.116"/>
		<polygon fill="#FFFFFF" points="59.115,13.434 59.115,74.101 73.401,74.101 73.401,0.406 		"/>
		<path fill="#FFFFFF" d="M25.69,22.268c-15.228,0-24.781,11.764-24.781,27.306c0,14.816,9.659,23.954,23.839,23.954
			c5.044,0,9.876-1.47,13.029-4.521v4.409c0,9.988-4.936,14.189-17.338,14.189c-4.634,0-8.961-0.304-11.879-0.776l8.018,11.919
			c1.603,0.062,3.347,0.093,5.23,0.093c18.908,0,30.255-7.142,30.255-25.102V48.526C52.063,31.929,41.45,22.268,25.69,22.268
			 M26.849,62.281c-7.143,0-11.658-4.933-11.658-14.386c0-9.451,4.515-14.388,11.658-14.388c7.143,0,11.662,4.937,11.662,14.388
			C38.51,57.349,33.996,62.281,26.849,62.281"/>
		<polygon fill="#FFFFFF" points="283.646,15.246 283.646,0.953 297.937,0.953 		"/>
	</g>
</g>
<g id="Layer_2" display="none">
	<path display="inline" d="M-399.301,314.109h-2.322v1.203c-0.543-0.621-1.394-1.144-2.71-1.144c-2.61,0-4.391,1.742-4.391,4.547
		c0,2.941,1.761,5.166,4.76,5.166c1.431,0,2.601-0.397,3.412-1.209l1.267,1.271L-399.301,314.109z M-403.945,321.813
		c-1.316,0-2.147-0.948-2.147-2.786s0.831-2.785,2.147-2.785c1.316,0,2.147,0.946,2.147,2.785S-402.629,321.813-403.945,321.813"/>
	<path display="inline" d="M-445.203,314.17c-2.785,0-4.855,2.014-4.855,4.855c0,2.845,2.07,4.855,4.855,4.855
		c2.786,0,4.858-2.012,4.858-4.855C-440.345,316.184-442.417,314.17-445.203,314.17 M-445.203,321.813
		c-1.354,0-2.225-0.948-2.225-2.786s0.871-2.785,2.225-2.785c1.355,0,2.226,0.946,2.226,2.785S-443.848,321.813-445.203,321.813"/>
	<path display="inline" d="M-418.88,314.1l-1.269,1.269c-0.811-0.805-1.978-1.198-3.403-1.198c-2.998,0-4.76,2.227-4.76,5.166
		c0,2.806,1.78,4.547,4.393,4.547c1.315,0,2.165-0.521,2.709-1.142v0.908h2.32L-418.88,314.1z M-423.533,321.742
		c-1.314,0-2.147-0.949-2.147-2.786c0-1.839,0.833-2.787,2.147-2.787c1.316,0,2.147,0.948,2.147,2.787
		C-421.386,320.793-422.217,321.742-423.533,321.742"/>
	<rect x="-412.658" y="314.102" display="inline" width="2.633" height="9.546"/>
	<polygon display="inline" points="-417.091,312.8 -417.091,323.648 -414.779,323.648 -414.459,323.648 -414.459,310.172 	"/>
	<path display="inline" d="M-433.997,314.165c-0.927,0-1.819,0.271-2.399,0.851v-4.903l-2.631,2.399v6.528
		c0,3.058,1.955,4.837,4.857,4.837c2.806,0,4.566-2.225,4.566-5.165C-429.604,315.907-431.384,314.165-433.997,314.165
		 M-434.383,321.809c-1.315,0-2.147-0.948-2.147-2.786c0-1.839,0.832-2.787,2.147-2.787c1.315,0,2.148,0.948,2.148,2.787
		C-432.235,320.86-433.068,321.809-434.383,321.809"/>
	<polygon display="inline" points="-454.009,312.473 -454.009,323.646 -451.378,323.646 -451.378,310.073 	"/>
	<path display="inline" d="M-460.165,314.1c-2.806,0-4.565,2.166-4.565,5.029c0,2.729,1.779,4.412,4.391,4.412
		c0.929,0,1.819-0.271,2.4-0.833v0.813c0,1.839-0.909,2.612-3.194,2.612c-0.853,0-1.651-0.056-2.188-0.143l1.478,2.193
		c0.296,0.013,0.617,0.02,0.963,0.02c3.483,0,5.573-1.315,5.573-4.623v-4.645C-455.308,315.878-457.263,314.1-460.165,314.1
		 M-459.952,321.471c-1.315,0-2.147-0.91-2.147-2.649c0-1.742,0.832-2.651,2.147-2.651c1.316,0,2.148,0.909,2.148,2.651
		C-457.804,320.561-458.636,321.471-459.952,321.471"/>
	<polygon display="inline" points="-412.651,312.807 -412.651,310.173 -410.019,310.173 	"/>
	<path display="inline" d="M-351.438,391.676h-5.683v2.942c-1.328-1.516-3.411-2.793-6.631-2.793
		c-6.388,0-10.744,4.263-10.744,11.125c0,7.196,4.308,12.641,11.647,12.641c3.498,0,6.363-0.973,8.349-2.956l3.099,3.104
		L-351.438,391.676z M-362.805,410.528c-3.219,0-5.254-2.323-5.254-6.819c0-4.498,2.035-6.817,5.254-6.817
		c3.223,0,5.258,2.319,5.258,6.817C-357.547,408.205-359.582,410.528-362.805,410.528"/>
	<path display="inline" d="M-463.756,391.825c-6.815,0-11.881,4.926-11.881,11.884c0,6.959,5.066,11.881,11.881,11.881
		c6.817,0,11.887-4.922,11.887-11.881C-451.869,396.751-456.939,391.825-463.756,391.825 M-463.756,410.528
		c-3.313,0-5.444-2.323-5.444-6.819c0-4.499,2.131-6.817,5.444-6.817c3.316,0,5.447,2.318,5.447,6.817
		C-458.309,408.205-460.44,410.528-463.756,410.528"/>
	<path display="inline" d="M-399.346,391.65l-3.104,3.103c-1.983-1.967-4.842-2.93-8.329-2.93c-7.336,0-11.646,5.441-11.646,12.639
		c0,6.865,4.355,11.128,10.748,11.128c3.217,0,5.297-1.278,6.627-2.796v2.229h5.678L-399.346,391.65z M-410.731,410.353
		c-3.22,0-5.257-2.321-5.257-6.814c0-4.5,2.037-6.819,5.257-6.819c3.222,0,5.254,2.319,5.254,6.819
		C-405.478,408.029-407.51,410.353-410.731,410.353"/>
	<rect x="-384.122" y="391.658" display="inline" width="6.443" height="23.354"/>
	<polygon display="inline" points="-394.969,388.473 -394.969,415.018 -389.313,415.018 -388.527,415.018 -388.527,382.042 	"/>
	<path display="inline" d="M-436.338,391.811c-2.269,0-4.45,0.664-5.87,2.084v-12.002l-6.438,5.873v15.978
		c0,7.479,4.783,11.834,11.885,11.834c6.864,0,11.171-5.441,11.171-12.641C-425.59,396.073-429.945,391.811-436.338,391.811
		 M-437.283,410.514c-3.218,0-5.253-2.321-5.253-6.817c0-4.498,2.035-6.816,5.253-6.816c3.22,0,5.258,2.318,5.258,6.816
		C-432.025,408.19-434.063,410.514-437.283,410.514"/>
	<polygon display="inline" points="-485.304,387.671 -485.304,415.014 -478.865,415.014 -478.865,381.797 	"/>
	<path display="inline" d="M-500.368,391.65c-6.866,0-11.171,5.304-11.171,12.31c0,6.675,4.355,10.795,10.746,10.795
		c2.273,0,4.45-0.662,5.871-2.037v1.986c0,4.5-2.225,6.394-7.815,6.394c-2.088,0-4.04-0.138-5.354-0.351l3.615,5.371
		c0.723,0.03,1.508,0.045,2.357,0.045c8.522,0,13.635-3.22,13.635-11.313v-11.361C-488.484,396.005-493.267,391.65-500.368,391.65
		 M-499.847,409.688c-3.219,0-5.253-2.226-5.253-6.483c0-4.261,2.034-6.485,5.253-6.485c3.221,0,5.256,2.227,5.256,6.485
		C-494.591,407.462-496.625,409.688-499.847,409.688"/>
	<polygon display="inline" points="-384.105,388.486 -384.105,382.046 -377.664,382.046 	"/>
	<rect x="-492.143" y="310.182" display="inline" width="18" height="18"/>
	<rect x="-492.143" y="253.514" display="inline" width="18" height="18"/>
</g>
</svg>
